<svg enable-background="new 0 0 100 100" height="512" viewBox="0 0 100 100" width="512" xmlns="http://www.w3.org/2000/svg"><ellipse cx="50.072" cy="67.209" fill="#fcd462" rx="27.791" ry="27.791" transform="matrix(.987 -.16 .16 .987 -10.119 8.888)"/><ellipse cx="50.072" cy="67.209" fill="#dc8744" rx="22.395" ry="22.395" transform="matrix(.987 -.16 .16 .987 -10.119 8.888)"/><path d="m60.724247 68.6523895c-.8013992-1.0536423-1.9474983-1.7989349-3.4382973-2.2360992 1.1545143-.571701 2.0176201-1.3227081 2.5892143-2.2530289.571701-.9303246.8574982-1.9222527.8574982-2.9759941 0-1.1320763-.3222618-2.216568-.9666862-3.253376-.6445236-1.036808-1.5356789-1.8045464-2.6733627-2.3034172-.8617554-.377739-1.9393921-.6111794-3.228756-.7028084v-3.0699005h-3.2360229v3.0245018h-1.6364555v-3.0245018h-3.23592v3.0245018h-1.3704987v-.0075836h-3.6188545v2.9004669h2.5479698v18.8468437h-2.5479698v2.9003601h2.5479698v.008316h2.4413834v3.0297394h3.23592v-3.0297394h1.6364555v3.0297394h3.2360229v-3.0569611c1.0768051-.0521545 2.0191803-.1801453 2.8252525-.384697 1.0815849-.2746811 1.9811554-.6809921 2.6985054-1.2190323s1.3198013-1.3030777 1.8074532-2.2950058c.4875488-.9919281.7313766-2.0652008.7313766-3.2197113 0-1.4346999-.4006996-2.6789778-1.202198-3.7326125zm-14.1483803-10.8614502h4.9262924c1.7709885 0 3.0207672.1149025 3.7494431.3447037.728466.2298012 1.2889481.6557426 1.6812286 1.2778282.3923874.6220856.5885315 1.3422432.5885315 2.1605721 0 .8630028-.2101669 1.5804558-.6305008 2.1520538-.4203339.5715942-1.0452232.9808121-1.8747749 1.2274399-.6276932.1905365-1.6643982.2857971-3.110424.2857971h-5.3297958v-7.4483948zm11.483532 16.6704865c-.3250656.5996399-.7397881 1.0564423-1.2442741 1.370285-.5043793.3138504-1.1320724.5380402-1.8829803.6724701-.4260445.0785446-1.1658363.1178131-2.2193718.1178131h-2.084938-1.6364555-2.4155121v-8.4739838h5.6997452c1.5692368 0 2.7713318.1373367 3.6064911.4119186.8350563.2745743 1.4878922.7510071 1.9587135 1.4290924.4707222.6781845.706131 1.4768753.706131 2.3959808-.0000002.7845689-.1624796 1.4767763-.487549 2.0764238z" fill="#fcd462"/><path d="m50.0325394 87.4096603h-.0003548c-.7280464-.0010605-1.4620857-.0415878-2.1823807-.1205215-.1980476-.0218506-.3411179-.1998062-.3192711-.3982086.0214958-.1980438.1962852-.3442841.3982086-.3192673.6942177.0761185 1.4021797.1152344 2.1041489.1162872.1994553.0003586.3608551.1621017.3605003.3612061-.0003509.1991043-.1617469.3605041-.3608512.3605041zm2.1443214-.1099472c-.1825371 0-.3390007-.1377869-.3583832-.3231506-.0211449-.1980438.1226311-.3756485.3210297-.3964386.6973915-.0736542 1.3976021-.1860657 2.0812454-.3344269.1945229-.0408783.3872833.0814056.4292183.2762756.0422859.1948776-.0814018.3869324-.2762794.4292221-.7090187.1536407-1.4353027.2702866-2.1587715.346405-.0126839.0014039-.0253716.0021134-.0380593.0021134zm-6.4058342-.3576812c-.0257263 0-.0518036-.0028229-.0782318-.008461-.7086678-.1564636-1.4169807-.3541565-2.1059151-.5874405-.18853-.0641327-.289669-.2688751-.2258835-.4577637.0641365-.188179.2692299-.2900162.4577599-.2258835.663559.2251816 1.3465004.4154739 2.0297966.5662994.1945229.0429916.3175087.2353973.2745171.430275-.0373574.1684418-.1864205.2829743-.3520432.2829743zm10.5968704-.5518494c-.1511765 0-.2917824-.0955048-.3421745-.2463303-.0630798-.1892319.0387611-.3936234.2276459-.4567032.666378-.2227097 1.3257103-.4841919 1.9603729-.7770309.1818352-.0845718.3953896-.0045776.4789047.1765518.083519.1811295.0045815.3953857-.176548.4789047-.6582756.3037643-1.3426247.5747604-2.0336723.8059311-.0380592.0126801-.0764694.0186768-.1145287.0186768zm-14.6585769-.8235474c-.0507431 0-.1025467-.0109253-.1518822-.0338364-.6568642-.3058777-1.3056221-.6515732-1.9283066-1.0282822-.1705589-.1029053-.2251778-.324913-.1219292-.4954681.1025467-.1702118.3238525-.2255325.4954681-.121933.6004829.3629684 1.2259827.6966858 1.8592377.9916382.1807785.0838699.2590103.2988358.1747856.4792633-.0609626.1314393-.191349.2086182-.3273734.2086182zm18.5543022-.9704971c-.1226311 0-.2420921-.0623779-.3097534-.1751404-.1025467-.1709137-.0472221-.3925705.1236916-.4951172.5997772-.3597946 1.1875687-.7569427 1.7468224-1.1805191.158577-.1208725.3851662-.0895157.5053329.0697708.1205215.1589279.0891571.38517-.0697746.5053329-.579689.4394379-1.1893311.851387-1.8109589 1.2242203-.0581437.0348893-.1222802.0514527-.18536.0514527zm-22.2220307-1.2481842c-.0761147 0-.1532898-.0239639-.218483-.0740051-.5775757-.4408417-1.1371803-.9183426-1.6633072-1.4183884-.1444817-.137085-.1504707-.3657837-.0130386-.5099182.137085-.1444778.3657875-.1504669.5099182-.0130386.5078011.4820786 1.0473175.9423065 1.6040993 1.3676453.1585808.1208725.1888847.3474655.0680122.5056915-.0711822.0930328-.1783103.1420135-.2872009.1420135zm25.6406174-1.3419189c-.0958519 0-.1913528-.038063-.2625351-.113121-.1367302-.1451874-.1300354-.3735352.014801-.5102692.5099144-.4806671.9990425-.9944611 1.4543343-1.5265732.1289749-.151886.3569794-.1691513.5085068-.0398178.1515274.1293259.1695023.3573227.0398178.5084991-.4718552.5522079-.9789505 1.0846786-1.5071907 1.582962-.0697746.0658951-.1589317.0983201-.2477341.0983201zm-28.7483902-1.6122056c-.1025467 0-.2043877-.0433502-.2755699-.1275711-.4708023-.5557251-.9155235-1.1417618-1.3221893-1.741539-.1117058-.164917-.0687141-.3890381.0962067-.5011063.1649208-.111702.3893967-.0694199.5014572.0965576.3918648.5782852.8210793 1.1431732 1.2749634 1.6795197.1289787.1522293.109951.3798828-.041935.5085068-.0680123.0574341-.1508217.0856323-.2329331.0856323zm31.5330162-1.6478042c-.0701294 0-.1409607-.0204391-.20298-.0627213-.164566-.1124191-.2072067-.3368912-.0947952-.5014648.3960953-.58004.7636414-1.1861572 1.0927811-1.8024979.0933838-.1758423.3118668-.241745.4884186-.1480026.1754913.0937347.2420959.3125687.1480026.4884186-.3411179.6388931-.7224121 1.2675629-1.1329498 1.8687515-.0701295.1025467-.1832429.1575165-.2984773.1575165zm-33.9381103-1.9032822c-.1293297 0-.2544289-.0697784-.3192711-.1920547-.340765-.6438293-.6491108-1.311615-.9169312-1.9853973-.0732975-.1850052.0169144-.3950348.2022743-.4686813.1857128-.0725937.3946838.0169144.4686852.2022705.2579536.6494675.5553741 1.2932892.8838081 1.9142075.0933838.1762009.0260773.3946838-.1501198.4877167-.0539169.028549-.1117095.0419386-.1684455.0419386zm35.9587402-1.8772125c-.045105 0-.0905609-.0084534-.134613-.0260773-.1850052-.0743561-.2745132-.2843781-.2001572-.4693909.2614746-.6505203.48983-1.3218307.67836-1.9956131.0539169-.1917038.2558365-.302002.4447174-.2501984.1920547.053566.3041229.2526703.250206.444725-.1955795.6987991-.4323883 1.3954849-.7037354 2.0703201-.0567321.1409532-.1920547.2262346-.3347778.2262346zm-37.5434608-2.1087265c-.158226 0-.3034115-.1050186-.3474617-.265007-.1931133-.7023239-.3499279-1.4208527-.4655132-2.1362152-.0317154-.19664.101841-.3819962.29883-.4137115.1969891-.0345383.3816433.1021957.4137115.2988281.1113567.6892853.2625351 1.3824463.4485989 2.0593948.0528603.1924133-.059906.3908081-.2519627.4436722-.0320663.0088043-.0644874.0130386-.0962028.0130386zm38.7007255-2.019577c-.0193787 0-.0394669-.0014114-.0591965-.0049362-.19664-.0324173-.3298416-.218483-.2970734-.414772.1141739-.6896362.1920547-1.3944244.2315216-2.094986.0109253-.1991043.1832504-.3502808.3802414-.3400574.1990967.0109177.3513336.1814804.3400574.3802338-.0405273.7266388-.1212234 1.4575043-.2399826 2.1725159-.0292434.1769027-.1821899.3020019-.3555679.3020019zm-39.3850765-2.2130432c-.1906452 0-.3499279-.1494141-.3601475-.3418198-.0186768-.355217-.0278397-.7132492-.0278397-1.0734024 0-.3731842.0102196-.7439041.0303059-1.1125107.0105724-.1987457.1779594-.361908.3798809-.3404083.1987514.0105667.3513393.1807785.340414.3798828-.0193806.3552094-.0288963.7132416-.0288963 1.0730362 0 .3474655.0091629.6928101.0271339 1.0353394.0102196.1991043-.1427193.3689575-.3414707.3795319-.0066947.0003509-.0130386.0003509-.0193805.0003509zm39.6268215-2.0678559c-.1909943 0-.3502808-.149765-.3601456-.3428802-.0352402-.7012634-.1088943-1.4064102-.2188416-2.0963974-.0313568-.1966362.1025467-.3816414.2995377-.4130058.1952286-.0317154.3816452.1028976.4130096.2995338.1141739.7153625.1906433 1.4465866.2272949 2.1739273.0098648.1987534-.143425.3682556-.3425293.3784714-.005989.0003509-.0123366.0003509-.0183257.0003509zm-39.3924789-2.2137451c-.0193825 0-.038763-.0014114-.0584984-.0045776-.1969891-.0324249-.3301945-.2177811-.2981262-.4144211.1177006-.7185326.2759266-1.4367142.4697437-2.1351585.0532112-.1920547.2530193-.3023567.4443703-.2512589.1920547.0535622.3044682.2523155.2512569.4443703-.1871223.6734276-.3397083 1.3658829-.4528275 2.058342-.0292491.1772537-.182188.3027038-.3559188.3027038zm38.7165832-2.0206337c-.158577 0-.3037643-.1053658-.3478088-.2657051-.1853638-.6776543-.4094849-1.3503761-.6663818-1.9998398-.0732956-.18536.0176239-.3950348.2026291-.4683342.1846542-.0729446.3950348.0176201.4683304.2026253.2664108.6741333.4993439 1.3722267.6917496 2.0752563.0525131.1920547-.0606079.3904533-.2530136.4433136-.0317155.0084572-.0637895.0126839-.0955049.0126839zm-37.5688324-2.1104927c-.044754 0-.0898609-.0081062-.1339111-.0257263-.1850071-.0740013-.2752209-.2840271-.2012177-.4690361.2692299-.6741333.5789852-1.341568.9204559-1.9829254.0933838-.1762009.3125763-.2428017.4880676-.1490631.1758461.0937347.2428017.3122215.1490631.4880638-.3291359.618454-.6276169 1.2615776-.887331 1.9117432-.056383.1409606-.1920547.2269439-.3351268.2269439zm35.9939804-1.8786163c-.1296768 0-.2551346-.0701294-.3196182-.1927605-.3263168-.6191597-.6906967-1.2277451-1.0825577-1.8088455-.1113586-.1652718-.0680161-.3897476.0972595-.5011063.1652756-.1113548.3893967-.0680122.5011063.0972633.406662.6025925.7840805 1.2340851 1.1227264 1.876503.0930328.1761971.0253754.3943291-.1511765.4873619-.0535659.0281907-.111.0415841-.1677398.0415841zm-33.9807472-1.9064598c-.0697746 0-.1406059-.0200844-.2026291-.0623741-.1649208-.1120605-.2075577-.3365364-.0954971-.5014572.4084244-.6004791.8542061-1.1851044 1.3250046-1.7383652.1296806-.1518822.3569756-.1698532.5088577-.0408783.1515312.1293297.169857.3569756.0408783.5088615-.4538841.5331726-.8838081 1.0973549-1.2777824 1.676342-.0697747.1025467-.1832467.1578713-.298832.1578713zm31.5826988-1.6495591c-.1028976 0-.2047424-.0433464-.2759247-.1279221-.4521255-.5352859-.9384232-1.0515442-1.4451714-1.5353851-.1441307-.1377869-.1494141-.3661385-.011982-.5102654.1377869-.1441307.3664932-.1490631.5102692-.011982.5254211.5014572 1.0293427 1.0370979 1.4980316 1.5917664.128624.1522369.1095963.3798828-.0426407.5085068-.0676574.0574418-.1504744.0852814-.232582.0852814zm-28.8037109-1.616436c-.0955009 0-.1909981-.0377083-.2621841-.1127663-.1367302-.1448364-.1307373-.373188.0140953-.5102692.5275383-.4993439 1.0881958-.9754295 1.6661263-1.4152184.158226-.1208725.3851662-.0898628.5056877.068718.1205177.158577.089859.3848152-.068718.5056839-.5574913.4242859-1.0980644.8834572-1.6069221 1.365181-.0697747.065899-.1589318.098671-.2480851.098671zm25.7008743-1.3433304c-.0764694 0-.1536446-.0243149-.2191887-.0743561-.5553741-.4260445-1.1407051-.8267174-1.7394218-1.1907425-.170208-.1036034-.2244759-.3256149-.1208725-.4958191.1036034-.169857.3252602-.2241249.4958191-.1208725.6209221.3774147 1.2277451.7928886 1.8035583 1.2344398.158226.1215744.188179.3478127.0669556.5060387-.0711861.092682-.1783142.1413117-.28685.1413117zm-22.2872238-1.2524108c-.1222839 0-.241745-.0620232-.3094025-.1744385-.1029015-.1709099-.0479279-.3925667.1226311-.4954681.6226845-.3752975 1.2724991-.720295 1.9318314-1.0254669.1811295-.0842247.3957405-.0049362.4789047.1758461.0838699.1807785.0049324.3953857-.1758461.4789047-.6353683.2942467-1.2619247.6269073-1.8620567.9888191-.0584946.0352401-.1226311.0518036-.1860619.0518036zm18.6237259-.9743729c-.0510979 0-.1032524-.0109253-.1525879-.0338326-.6350174-.2970695-1.2929382-.5624199-1.9550896-.7886581-.18853-.0644875-.2893143-.2695847-.2248268-.4581146.0641365-.18853.2695808-.2893143.4581146-.2248268.6868172.2343407 1.3690529.5095634 2.0276794.8175545.1804276.0845757.2583084.2995377.1740837.4799614-.0613173.131092-.1913489.2079162-.3273734.2079162zm-14.7322273-.8277779c-.1508255 0-.2910805-.0951462-.3418236-.2456169-.0637856-.1888847.0377045-.3936272.2265892-.457058.6878738-.2318764 1.3972473-.4281616 2.1083794-.5839195.1938171-.0436974.3865776.0799942.4295692.2752228.0426407.194519-.0803452.3869286-.275219.4295692-.6854095.1501198-1.3690567.3397064-2.0322647.5627747-.0384102.0130387-.0771713.0190277-.1152305.0190277zm10.6743965-.5560798c-.0260773 0-.0525055-.0028191-.0789375-.0088081-.6825867-.1522369-1.3817406-.2688789-2.0787773-.346405-.1980438-.0222015-.3407669-.2005119-.3189163-.3985596.0225525-.1983986.2061501-.3358307.3985596-.3189163.723114.0806999 1.4483414.2015686 2.1563034.3597946.1945229.0433464.3171577.2361069.2734604.4306259-.0373536.1680946-.1864167.2822685-.3516923.2822685zm-6.4851265-.3622628c-.1821861 0-.3386497-.1374321-.3583832-.3224411-.0211449-.1980438.1222801-.3760033.3203239-.3971481.719944-.0771751 1.4543343-.116291 2.1820335-.116291h.0799904c.1994591 0 .3608551.161396.3608551.3608551 0 .1994553-.161396.3608513-.3608551.3608513h-.0799903c-.7023239 0-1.4106407.0377045-2.1052094.1120605-.0130386.0014114-.0260772.0021133-.0387649.0021133z" fill="#fcd462"/><path d="m67.6291351 21.0094585-8.7711601 12.3655529-8.6123199-23.0560741-.0000725-.0553246-.0089493.0273933-.0088539-.0273933-.0002403.0551224-8.7170219 23.0562763-8.7711563-12.3655529s4.5471916 12.4432926 3.4290352 26.214159h13.9035606.224556 13.9035835c-1.1181794-13.7708663 3.4290389-26.214159 3.4290389-26.214159z" fill="#f7be56"/><path d="m76.9149323 18.8864975-11.172844 14.5027122c-1.0274811 1.333725-3.1055145 1.0926476-3.8003922-.4408569-5.9964371-8.7064247-9.9053078-17.3359871-11.663353-25.7398033l-.0001106-.0604339-.0137138.0299244-.0135689-.0299234-.0003662.060214c-2.9714012 9.5569706-6.7717705 18.2837105-11.8163452 25.7643719-.7000122 1.5263176-2.7714081 1.7618179-3.7961769.4316177l-11.1845035-14.5178227s6.9676323 13.5926132 5.2542915 28.6354141h21.3043346.3440857 21.3043747c-1.7133789-15.0428009 5.2542878-28.6354141 5.2542878-28.6354141z" fill="#fcd462"/><g fill="#ebf0f3"><path d="m50.1842804 5c-2.4488029 0-4.4340172 1.9852133-4.4340172 4.4340162s1.9852142 4.4338789 4.4340172 4.4338789 4.4339485-1.985076 4.4339485-4.4338789-1.9851456-4.4340162-4.4339485-4.4340162z"/><path d="m75.7550812 18.057621c-1.4382095 0-2.6041489 1.1659393-2.6041489 2.6041489s1.1659393 2.6040668 2.6041489 2.6040668 2.6041031-1.1658573 2.6041031-2.6040668-1.1658936-2.6041489-2.6041031-2.6041489z"/><path d="m67.4021454 19.6390343c-1.2206192 0-2.2101517.9895401-2.2101517 2.2101555 0 1.2206173.9895325 2.2100868 2.2101517 2.2100868s2.2101212-.9894695 2.2101212-2.2100868c-.0000001-1.2206154-.989502-2.2101555-2.2101212-2.2101555z"/><path d="m24.2449207 18.057621c1.4382095 0 2.6041489 1.1659393 2.6041489 2.6041489s-1.1659393 2.6040668-2.6041489 2.6040668c-1.4382114 0-2.6041088-1.1658573-2.6041088-2.6040668s1.1658974-2.6041489 2.6041088-2.6041489z"/><path d="m32.5978546 19.6390343c1.2206154 0 2.2101555.9895401 2.2101555 2.2101555 0 1.2206173-.9895401 2.2100868-2.2101555 2.2100868-1.2206173 0-2.2101212-.9894695-2.2101212-2.2100868.0000001-1.2206154.9895039-2.2101555 2.2101212-2.2101555z"/></g><g fill="#f7be56"><path d="m72.4963379 46.4900513h-44.6241837c-1.0052624 0-1.8202.8149033-1.8202 1.8201981 0 1.0052986.8149376 1.8202019 1.8202 1.8202019h44.6241837c1.0052567 0 1.8201981-.8149033 1.8201981-1.8202019-.0000001-1.0052949-.8149415-1.8201981-1.8201981-1.8201981z"/><path d="m50 30.2678986 1.9031944 3.8562965 4.2556763.6183853-3.0794373 3.001709.7269593 4.2384758-3.8063927-2.0011368-3.8063927 2.0011368.7269593-4.2384758-3.0794373-3.001709 4.2556763-.6183853z"/></g></svg>